<svg version="1.2" xmlns="http://www.w3.org/2000/svg" viewBox="0 0 1544 462" width="1544" height="462"><style>.a{fill:#ff2e17}</style><path class="a" d="m575.8 259.3l81.2-250.6h-94.9l-47.4 148.6-0.8-5.6v-5.7l-1.6-5.6v-5.6l-1.6-4.8-0.8-5.6-1.6-4.9-1.6-5.6-1.7-4.8-1.6-5.6-2.4-4.9-2.4-4.8-2.4-4.8-2.4-4.8-3.2-4.8-3.2-4.9-5.7-8.8-6.4-8-7.2-7.3-8.1-7.2-8-6.4-8.1-5.6-9.6-4.9-8.9-4.8-9.6-4.8-10.5-4-10.4-3.2-10.5-2.4-10.4-2.5-11.3-1.6-11.2-1.6-12.1-0.8h-12.1-12l-11.3 0.8-12.9 1.6-12 1.6-12.1 2.5-12.8 3.2-12.1 3.2-12.9 4-12 4.8-12.9 4.8-12.1 5.7-12.8 6.4-12.1 6.4-12.1 7.2-12 8.1-11.3 8-11.2 8.9-11.3 8.8-9.6 8.8-10.5 9.7-9.6 9.6-8.9 9.7-8 10.4-8.1 9.6-7.2 10.5-7.3 11.2-6.4 10.5-5.6 10.4-4.8 11.3-5.7 11.2-4 10.5-3.2 11.2-4 11.3-1.6 10.4-2.4 11.3-1.7 11.2-0.8 10.4v10.5 11.2l1.6 10.5 1.7 9.6 2.4 10.5 2.4 9.6 4 9.7 4 9.6 4.8 8.8 5.7 8.9 6.4 8.8 5.6 7.2 7.3 7.3 7.2 6.4 7.3 6.4 8 5.7 8.8 5.6 8.9 4.8 8.8 4.8 9.7 3.2 9.6 4 9.7 2.5 10.4 2.4 10.5 2.4 10.4 1.6 11.3 0.8 11.3 0.8h11.2l11.3-0.8 12-0.8 11.3-0.8 12.1-2.4 11.2-1.6 12.1-3.2 12-3.3 12.1-4 12.1-4 12-4.8 11.3-4.8 12-5.7 11.3-6.4 12.1-6.4v-19.3l-10.5 5.6-9.6 4.8-9.7 4.1-9.6 4-10.5 4-9.6 3.2-10.5 2.4-9.6 2.4-10.5 2.4-9.6 1.6-9.7 0.9-9.6 0.8-9.7 0.8h-9.6-9.7l-8.8-1.6-9.7-0.9-8.8-1.6-8.9-1.6-8-2.4-8.9-3.2-8-2.4-8.1-4-7.2-3.2-7.2-4.9-7.3-4-7.2-4.8-6.4-5.6-6.5-6.4-5.6-5.7-4.8-6.4-5.7-7.2-4.8-8.1-4-8-4-8-3.2-8.1-2.4-8.8-1.7-8.8-1.6-9.7-0.8-8.8-0.8-9.7v-8.8l0.8-9.6 0.8-9.7 1.6-8.8 2.5-10.5 2.4-9.6 3.2-9.6 4-8.9 3.2-9.6 4.8-9.7 4.9-9.6 5.6-8.8 5.6-9.7 6.5-8.8 6.4-8.9 8-8.8 7.3-8 8-8.9 8.9-8 8.8-8 8.9-7.3 9.6-7.2 10.5-7.2 9.6-6.5 11.3-6.4 10.4-5.6 10.5-5.6 10.4-4.9 11.3-4 10.4-4 11.3-3.2 10.5-3.2 11.2-2.4 10.5-1.6 10.4-1.6 10.5-1.7 10.4-0.8h10.5l10.4 0.8h9.7l10.4 1.7 9.7 1.6 8.8 2.4 9.7 2.4 8.8 3.2 8.9 3.2 8 4 8.1 4 8 4.9 7.2 4.8 7.3 6.4 6.4 5.6 6.4 6.5 5.7 7.2 5.6 8 4 6.5 4 6.4 3.3 7.2 3.2 7.2 2.4 7.3 1.6 7.2 1.6 7.2 1.6 8.1 0.8 7.2v8l0.8 8.1-0.8 8.8v8l-1.6 8.9-0.8 8-1.6 8.9-1.6 9.6-3.2 8.8-2.4 9.7-3.3 8.8-4 8.1-4 8.8-4 8-4.9 8.1-5.6 8-4.8 8-6.4 7.3-6.5 8-6.4 7.2-8 7.3-7.3 7.2-8 6.4 4 1.6h3.2l4 0.8 4.1 0.8 4.8 0.8h4 4 4.8 6.5 6.4l6.4-0.8 5.7-0.8 4.8-0.8 4-1.6 4.8-0.8 4.1-1.6 4.8-1.6 4-1.6 4-1.6 4.1-2.4 4-1.6 4-2.4 4-2.5 3.2-2.4 4.1-2.4 4-2.4 3.2-3.2 3.2-2.4 3.2-3.2 3.2-3.2 3.3-3.3 3.2-3.2 3.2-3.2 2.4-4 2.4-3.2 2.4-4 3.2-4 1.7-3.3 2.4-4 2.4-4 1.6-4 1.6-4 1.6-4.8z"/><path fill-rule="evenodd" d="m976.3 351.7l-2.4-0.8h-5.7l-4.8-0.8-5.6-1.6-4.8-1.6-4.9-2.4-12-9.6-6.5-8.1-4.8-9.6-1.6-4.8-0.8-4.9-1.6-11.2v-3.2l0.8-3.2 0.8-4.1 0.8-3.2v-3.2l0.8-2.4v-3.2l1.6-2.4 56.3-175.2h94.1l-49.1 153.5-1.6 8 0.8 1.6v2.4l1.6 4.9 2.5 4.8 4.8 4.8 3.2 1.6 2.4 0.8 1.6 0.8 2.4 0.8h1.6l4.9-0.8h4.8l4.8-1.6 4-1.6 4.9-1.6 4-1.6 8-4.8 12.9-12.9 2.4-4 2.4-3.2 1.6-4.8 2.4-4.1 1.6-5.6v-1.6l44.3-135.8h94.9l-81.3 249.1h-93.2l10.4-33.7-4.8 4-4.8 4.8-5.7 4-4.8 4-6.4 3.2-11.3 6.5-6.4 3.2-12.9 4.8-12.9 3.2-7.2 0.8-6.4 0.8-7.3 0.8zm-116.6-255.5l2.5 0.8h8l5.6 1.6 9.7 3.3 4.8 2.4 4 3.2 4 2.4 4.1 4 6.4 8 3.2 4.9 1.6 4 2.4 5.6 0.8 4.8 1.6 11.3-0.8 3.2v4l-1.6 6.4v3.2l-0.8 2.5-0.8 3.2-0.8 2.4-56.3 174.3h-94.9l49.1-153.4 1.6-3.2v-8.9l-0.8-1.6-0.8-2.4-1.6-3.2-6.5-6.4-1.6-0.8-1.6-1.6-2.4-0.9h-1.6l-2.4-0.8h-6.4l-9.7 1.7-4.8 1.6-4 2.4-4.1 1.6-4 2.4-3.2 2.4-4 2.4-6.4 6.4-2.5 4.1-3.2 3.2-1.6 4-4.8 8-1.6 6.4v0.8l-0.8 0.9-42.6 134.9h-94.9l110.1-343.8h94.1l-40.2 130.1 4-4.8 5.7-4.8 4.8-4 11.3-8.1 11.2-6.4 25.7-9.6 6.5-0.9 7.2-1.6 6.4-0.8 7.3-0.8zm94.1 339.9v-10.5h27.3v33.8h-10.4v-3.2l-3.3 1.6-4.8 1.6h-1.6l-2.4 0.8h-8.9l-4.8-0.8-1.6-0.8-2.4-0.8-4.8-2.4-2.4-1.6-4.1-4-0.8-1.7-1.6-1.6-0.8-2.4-1.6-4-1.6-8v-9.7l0.8-4 1.6-4.8 1.6-4 0.8-1.6 1.6-1.6 0.8-1.6 4.9-4.9 1.6-0.8 2.4-0.8 2.4-1.6 4-1.6h16.1l2.4 0.8 1.6 0.8 2.4 0.8 1.7 0.8 1.6 1.6 1.6 0.8 1.6 1.6 0.8 1.7 1.6 1.6 1.6 3.2 1.6 4.8-11.3 2.4-1.6-4.8-3.2-3.2-7.2-2.4h-7.3l-1.6 0.8-2.4 0.8-3.2 1.6-4 4-1.6 3.2-0.8 2.4v2.4l-0.8 1.6v9.7l0.8 2.4v2.4l1.6 3.2 1.6 2.4 0.8 1.6 1.6 0.8 0.8 1.6 3.2 1.6 2.4 0.8h1.6l1.7 0.9h2.4l3.2-0.9h4.8l2.4-0.8 3.2-1.6 1.6-1.6 1.7-0.8v-8zm-103.8-12.9l0.8-1.6 2.4-7.2 1.6-4 1.7-2.4 0.8-1.6 1.6-2.4 3.2-3.3 2.4-0.8 1.6-1.6 1.6-0.8 3.2-0.8 3.2-1.6h13.7l3.2 1.6 3.3 0.8 2.4 0.8 3.2 2.4 2.4 1.6 1.6 2.5 4 4 1.6 3.2 0.8 2.4 1.6 4v3.2l0.8 2.4v7.3l-0.8 3.2v3.2l-1.6 2.4-0.8 3.2-1.6 2.4-1.6 3.2-4 4.1-2.4 1.6-2.4 2.4-12.9 3.2h-6.4l-9.7-2.4-2.4-0.8-3.2-1.6-1.6-2.4-2.4-1.6-1.6-2.5-2.5-2.4-1.6-3.2-0.8-2.4-2.4-9.6zm13.7 8.8l0.8 4 1.6 3.2 0.8 2.5 4.8 4.8 2.4 1.6 1.7 0.8h1.6l2.4 0.8h4l2.4-0.8h1.6l2.4-0.8 1.6-1.6 1.6-0.8 0.9-1.6 1.6-1.6 3.2-6.5 0.8-4.8v-8l-0.8-3.2-0.8-2.5-2.4-4.8-4.1-4-1.6-0.8-2.4-0.8-1.6-0.8h-8.8l-2.4 0.8-3.3 1.6-4 4-2.4 4.8-0.8 2.5-0.8 4zm-193.8 27.3v-63.5h10.4l29.8 42.6v-42.6h11.3v63.5h-11.3l-28.9-41v41zm-68.4 0v-63.5h12.9v24.9h28.1v-24.9h12.1v63.5h-12.1v-27.3h-28.1v27.3zm-124.7 0v-63.5h45.9v10.5h-33.8v14.4h31.3v10.5h-31.3v17.6h34.6v10.5zm530.7 0v-26.5l-22.5-37h15.3l13.6 24.9 14.5-24.9h14.5l-22.5 37v26.5zm-201.1 0v-62.7h12.9v52.2h28.1v10.5zm-72.3-37.8l2.4-7.2 2.4-4 0.8-2.4 3.2-3.2 1.6-2.5 1.6-1.6 1.6-0.8 1.6-1.6 2.5-0.8 9.6-2.4h7.2l9.7 2.4 7.2 4.8 2.4 2.5 4.9 7.2 1.6 3.2 2.4 9.6v6.5l-2.4 9.6-1.6 2.4-1.6 3.2-3.3 4.9-4.8 3.2-2.4 2.4-2.4 0.8-3.2 1.6-3.2 0.8h-13.7l-2.4-0.8-3.2-1.6-3.3-0.8-2.4-1.6-6.4-6.5-3.2-4.8-0.8-3.2-1.6-3.2-0.8-3.2zm12.8 10.4l0.8 3.2 0.8 2.5 1.7 3.2 1.6 1.6 0.8 1.6 1.6 1.6 1.6 0.8 0.8 0.8 2.4 0.8 1.6 0.8h2.4l2.4 0.8 1.6-0.8h2.5l2.4-0.8 4.8-2.4 0.8-1.6 1.6-1.6 1.6-3.2 0.8-2.4 0.8-1.7 1.6-8-1.6-8-3.2-6.5-1.6-1.6-0.8-1.6-4.8-2.4-2.4-0.8h-2.5l-1.6-0.8-2.4 0.8h-2.4l-1.6 0.8-2.4 0.8-3.2 1.6-0.8 1.6-1.6 1.6-3.3 6.5-0.8 4zm-170.4 4.8l12.8 4-1.6 4.9-0.8 1.6-1.6 2.4-3.2 3.2-0.8 1.6-2.4 1.6-1.6 0.8-1.6 1.6-2.5 0.8-1.6 0.8h-2.4l-2.4 0.8h-11.3l-6.4-1.6-9.6-6.4-1.6-2.4-1.7-3.2-1.6-2.5-1.6-3.2-2.4-9.6v-4l0.8-3.2v-3.3l1.6-6.4 1.6-3.2 1.6-2.4 1.7-3.2 4-4 4.8-3.2 3.2-1.7 2.4-0.8 3.2-0.8h12.9l9.7 3.3 2.4 1.6 4 4 1.6 2.4 3.2 6.4-13.6 3.2-0.9-1.6-0.8-2.4-3.2-3.2-2.4-1.6-1.6-0.8-2.4-0.8h-6.4l-4.9 2.4-0.8 0.8-1.6 0.8-0.8 1.6-3.2 3.2-0.8 1.6-0.8 2.4v2.4l-1.6 4.9v4.8l0.8 2.4 0.8 1.6v2.4l0.8 2.4 0.8 1.6 3.2 3.2 0.8 1.7 1.6 0.8 0.8 0.8 3.3 1.6h1.6l1.6 0.8h1.6l3.2-0.8h1.6l2.4-1.6 2.4-0.8 3.2-4.9 0.8-2.4zm-143.1 23.3v-53h-17.7v-10.4h49.1v10.4h-18.5v53z"/><path fill-rule="evenodd" d="m262.2 199.9l8.8-1.6 8.1-1.6 6.4-2.4 4.8-0.8 26.6-7.3 8.8-3.2 1.6-2.4 0.8-2.4 0.8-3.2 0.8-2.4v-3.3l0.8-3.2-0.8-2.4v-3.2l-6.4-3.2-3.2-0.8-3.2-1.6-3.2-0.8-2.5-0.8-3.2-0.8h-3.2l-4.8-0.8h-4.8l-5.7 0.8-4 0.8-4.8 1.6-4.8 0.8-4.1 1.6-4 2.4-3.2 1.6-2.4 2.4-8 6.5-4.1 4.8-4 5.6-89.3-9.6 3.3-5.7 4-5.6 3.2-4 3.2-4.8 4-4 3.3-4.1 3.2-3.2 4-3.2 3.2-3.2 12.1-9.6 4.8-3.3 4-2.4 4-3.2 9.7-4.8 4.8-1.6 4.8-2.4 5.7-1.6 4.8-1.6 5.6-2.4 11.3-1.7 6.4-1.6 5.6-0.8 6.5-0.8h6.4l6.4-0.8h35.4l8.9 0.8h7.2l8 0.8 7.3 0.8 12.9 1.6 16.8 4.9 5.7 2.4 9.6 6.4 4 3.2 4.9 4.8 3.2 4.1 3.2 4.8 3.2 5.6 2.4 4.8 3.2 11.3 0.8 6.4v14.5l-0.8 3.2v2.4l-0.8 2.4-0.8 3.2-3.2 10.5-4 12.8-4.8 13.7-4.9 16-5.6 18.5-7.2 20.1-7.3 23.3-8 26.5-0.8 2.4-0.8 3.2v5.7l0.8 2.4 0.8 3.2v2.4l0.8 1.6h-90.9v-0.8l-1.6-1.6-0.8-2.4-0.8-1.6-0.8-2.4-0.8-4.9v-7.2l0.8-2.4v-3.2l1.6-2.4-7.2 4.8-5.6 4.8-6.5 4-11.2 5.7-4.1 1.6-4 2.4-4 0.8-6.4 3.2-7.3 2.4-8 1.6-7.2 1.6-8.1 1.6-8 0.8h-28.2l-5.6-0.8-9.7-1.6-8-1.6-12.9-6.4-2.4-2.4-2.4-1.6-4.8-4.9-3.2-4.8-2.4-2.4-0.8-2.4-1.6-3.2-1.7-2.4-1.6-6.4-0.8-2.5-0.8-3.2v-13.6l0.8-3.2v-4.1l1.6-3.2 1.6-8 6.5-12.9 2.4-2.4 1.6-3.2 4-5.6 9.7-9.7 5.6-4 6.4-4.8 6.5-4 8-3.2 8-4 8.9-3.3 10.4-2.4 10.5-3.2 11.3-2.4 12.8-1.6 5.7-1.6 11.2-1.6 5.6-1.6zm49.9 29.7l-4.8 2.4-5.7 0.8-5.6 2.4-5.6 0.8-5.6 1.6-4.9 1.7-5.6 1.6-5.6 0.8-4 0.8-14.5 4.8-10.5 3.2-4 1.6-9.6 4.8-2.5 1.6-1.6 1.6-2.4 1.7-4.8 7.2-1.6 1.6-0.8 2.4-0.8 3.2-0.8 2.4v2.4l0.8 2.4v2.5l1.6 2.4 0.8 1.6 1.6 2.4 3.2 3.2 2.4 1.6 4.9 1.6h3.2l3.2 0.8h3.2l6.4-0.8 7.3-0.8 9.6-2.4 3.2-1.6 2.5-0.8 3.2-1.6 4-2.4 3.2-1.6 4-2.4 2.4-2.5 6.5-4.8 4.8-4.8 1.6-3.2 7.2-9.7 1.7-3.2 4.8-12zm1065.5-29.7l8.8-1.7 8.1-1.6 6.4-2.4 4.8-0.8 8.9-2.4 8.8-1.6 8.9-3.2 9.6-3.2 0.8-2.4 1.6-2.4 0.8-3.3v-2.4l0.8-3.2v-6.4l-0.8-2.4-2.4-1.6-3.2-1.6-3.2-0.8-3.2-1.6-6.5-1.6-11.2-1.7h-4.9l-9.6 1.7-4.8 1.6-4.9 0.8-4 2.4-4 1.6-3.2 2.4-2.4 1.6-4 3.2-4.1 4-3.2 4-4.8 5.7-89.3-9.7 4-5.6 3.3-5.6 3.2-4 3.2-4.9 4-4 3.2-4 4.1-3.2 7.2-7.2 8-6.5 4.1-2.4 4-3.2 4.8-2.4 4-3.2 9.7-4.8 4-1.6 5.6-2.5 4.8-1.6 11.3-3.2 4.8-1.6 5.7-0.8 6.4-1.6 6.4-0.8 5.7-0.8h6.4l6.4-0.8h36.2l8 0.8h8.1l14.5 1.6 12.8 1.6 6.5 1.6 11.2 3.2 4.8 2.4 5.7 3.3 4 3.2 4.8 4 8.1 8 3.2 4.8 2.4 5.7 2.4 4.8 1.6 5.6 1.6 6.4 0.8 5.7 0.8 6.4-0.8 3.2v4.8l-0.8 5.7-1.6 5.6-4 10.4-3.2 12.9-4.8 13.6-4.9 16.1-5.6 18.5-6.4 20.9-7.3 22.5-9.6 28.9v11.2l0.8 2.5 0.8 3.2 0.8 1.6h-91.7l-1.6-4.8-0.8-1.7-0.8-2.4-0.8-4.8-0.8-4 0.8-3.2v-2.4l0.8-3.2 0.8-2.4-12.9 9.6-6.4 4-6.4 3.2-4 2.4-4.9 1.6-3.2 2.5-4 0.8-7.2 3.2-7.3 2.4-7.2 1.6-16.1 3.2-8 0.8h-28.2l-5.6-0.8-9.7-1.6-4-0.8-3.2-0.8-4-1.6-6.5-3.2-2.4-1.6-3.2-2.5-2.4-1.6-2.4-2.4-1.6-2.4-2.4-2.4-4.9-7.2-1.6-3.2-0.8-2.4-1.6-3.3-0.8-3.2v-2.4l-1.6-6.4v-10.5l0.8-3.2 0.8-4 0.8-3.2 0.8-4 1.6-4 3.2-6.5 0.9-3.2 2.4-3.2 1.6-2.4 1.6-3.2 4.8-5.6 4-4.9 4.8-4.8 5.7-4 6.4-4.8 6.4-4 8.1-3.2 8-4.1 9.7-3.2 9.6-2.4 10.5-3.2 11.2-2.4 12.9-1.6 6.4-1.6 5.7-0.8 4.8-0.8 5.6-1.6zm50.7 29.7l-5.6 2.4-5.7 0.8-5.6 2.4-4.8 1.6-5.7 0.8-11.2 3.2-5.6 0.8-6.5 1.6-26.5 8.9-6.4 3.2-7.3 4.8-4 4-3.2 4.9-0.8 2.4-0.8 1.6-0.8 3.2-0.8 2.4v4.8l1.6 4.8 1.6 1.6 0.8 2.5 1.6 1.6 2.4 1.6 1.6 1.6 4.8 1.6 3.3 0.8h7.2l6.4-0.8 5.7-0.8 6.4-1.6 5.6-1.6 11.3-4.9 9.6-6.4 4.8-4 8.1-8 3.2-4.9 3.2-5.6 3.2-4.8 2.4-5.6 1.7-5.6z"/></svg>